<svg width="92" height="32" viewBox="0 0 92 32" fill="none" xmlns="http://www.w3.org/2000/svg">
<circle cx="16" cy="16" r="14" fill="#FE0F6D" stroke="#F5F4F6" stroke-width="4"/>
<path fill-rule="evenodd" clip-rule="evenodd" d="M10.5376 12.1376C11.1377 11.5377 11.9515 11.2007 12.8 11.2007C13.6486 11.2007 14.4623 11.5377 15.0624 12.1376L16 13.0744L16.9376 12.1376C17.2328 11.832 17.5859 11.5882 17.9763 11.4205C18.3667 11.2528 18.7866 11.1645 19.2115 11.1608C19.6364 11.1571 20.0578 11.2381 20.4511 11.399C20.8443 11.5599 21.2016 11.7975 21.5021 12.098C21.8025 12.3984 22.0402 12.7557 22.2011 13.149C22.362 13.5422 22.4429 13.9636 22.4392 14.3885C22.4355 14.8134 22.3473 15.2333 22.1795 15.6237C22.0118 16.0141 21.7681 16.3672 21.4624 16.6624L16 22.1256L10.5376 16.6624C9.93772 16.0623 9.60071 15.2486 9.60071 14.4C9.60071 13.5515 9.93772 12.7377 10.5376 12.1376Z" fill="#F5F4F6"/>
<circle cx="36" cy="16" r="14" fill="#00A8E8" stroke="#F5F4F6" stroke-width="4"/>
<path fill-rule="evenodd" clip-rule="evenodd" d="M30.5376 12.1376C31.1377 11.5377 31.9515 11.2007 32.8 11.2007C33.6486 11.2007 34.4623 11.5377 35.0624 12.1376L36 13.0744L36.9376 12.1376C37.2328 11.832 37.5859 11.5882 37.9763 11.4205C38.3667 11.2528 38.7866 11.1645 39.2115 11.1608C39.6364 11.1571 40.0578 11.2381 40.4511 11.399C40.8443 11.5599 41.2016 11.7975 41.5021 12.098C41.8025 12.3984 42.0402 12.7557 42.2011 13.149C42.362 13.5422 42.4429 13.9636 42.4392 14.3885C42.4355 14.8134 42.3473 15.2333 42.1795 15.6237C42.0118 16.0141 41.7681 16.3672 41.4624 16.6624L36 22.1256L30.5376 16.6624C29.9377 16.0623 29.6007 15.2486 29.6007 14.4C29.6007 13.5515 29.9377 12.7377 30.5376 12.1376Z" fill="#F5F4F6"/>
<circle cx="56" cy="16" r="14" fill="#F5CB5C" stroke="#F5F4F6" stroke-width="4"/>
<path fill-rule="evenodd" clip-rule="evenodd" d="M50.5376 12.1376C51.1377 11.5377 51.9515 11.2007 52.8 11.2007C53.6486 11.2007 54.4623 11.5377 55.0624 12.1376L56 13.0744L56.9376 12.1376C57.2328 11.832 57.5859 11.5882 57.9763 11.4205C58.3667 11.2528 58.7866 11.1645 59.2115 11.1608C59.6364 11.1571 60.0578 11.2381 60.4511 11.399C60.8443 11.5599 61.2016 11.7975 61.5021 12.098C61.8025 12.3984 62.0402 12.7557 62.2011 13.149C62.362 13.5422 62.4429 13.9636 62.4392 14.3885C62.4355 14.8134 62.3473 15.2333 62.1795 15.6237C62.0118 16.0141 61.7681 16.3672 61.4624 16.6624L56 22.1256L50.5376 16.6624C49.9377 16.0623 49.6007 15.2486 49.6007 14.4C49.6007 13.5515 49.9377 12.7377 50.5376 12.1376Z" fill="#F5F4F6"/>
<circle cx="76" cy="16" r="14" fill="#F36952" stroke="#F5F4F6" stroke-width="4"/>
<path fill-rule="evenodd" clip-rule="evenodd" d="M70.5376 12.1376C71.1377 11.5377 71.9515 11.2007 72.8 11.2007C73.6486 11.2007 74.4623 11.5377 75.0624 12.1376L76 13.0744L76.9376 12.1376C77.2328 11.832 77.5859 11.5882 77.9763 11.4205C78.3667 11.2528 78.7866 11.1645 79.2115 11.1608C79.6364 11.1571 80.0578 11.2381 80.4511 11.399C80.8443 11.5599 81.2016 11.7975 81.5021 12.098C81.8025 12.3984 82.0402 12.7557 82.2011 13.149C82.362 13.5422 82.4429 13.9636 82.4392 14.3885C82.4355 14.8134 82.3473 15.2333 82.1795 15.6237C82.0118 16.0141 81.7681 16.3672 81.4624 16.6624L76 22.1256L70.5376 16.6624C69.9377 16.0623 69.6007 15.2486 69.6007 14.4C69.6007 13.5515 69.9377 12.7377 70.5376 12.1376Z" fill="#F5F4F6"/>
</svg>
